<?xml version="1.0" encoding="utf-8"?>
<!-- Generator: Adobe Illustrator 26.0.1, SVG Export Plug-In . SVG Version: 6.00 Build 0)  -->
<svg version="1.1" id="レイヤー_1" xmlns="http://www.w3.org/2000/svg" xmlns:xlink="http://www.w3.org/1999/xlink" x="0px"
	 y="0px" viewBox="0 0 30 30" style="enable-background:new 0 0 30 30;" xml:space="preserve">
<style type="text/css">
	.st0{display:none;}
	.st1{display:inline;fill:#FFFFFF;}
	.st2{fill:#FFFFFF;}
	.st3{display:none;fill:#FFFFFF;}
	.st4{display:inline;}
</style>
<g id="Facebook" class="st0">
	<path class="st1" d="M17,23.4c0-1.4,0-2.7,0-4.1c0-0.5,0-0.5,0.5-0.5c0.7,0,1.5,0,2.2,0c0.2,0,0.3,0,0.3-0.3
		c0.2-1.1,0.3-2.1,0.5-3.2c0-0.3-0.1-0.2-0.3-0.2c-0.9,0-1.9,0-2.8,0c-0.5,0-0.5,0-0.5-0.5c0-0.7,0-1.4,0-2c0-1.2,0.7-1.9,1.9-2
		c0.5,0,1,0,1.5,0c0.2,0,0.3-0.1,0.3-0.3c0-0.9,0-1.7,0-2.6c0-0.1,0-0.3-0.2-0.3c-1.2-0.2-2.5-0.3-3.7-0.1c-2.1,0.3-3.5,1.9-3.8,4
		c-0.1,1.1,0,2.3-0.1,3.4c0,0.4,0,0.4-0.5,0.4c-0.8,0-1.6,0-2.5,0c-0.3,0-0.4,0.1-0.4,0.4c0,1,0,2,0,3c0,0.3,0.1,0.4,0.4,0.4
		c0.9,0,1.7,0,2.6,0c0.3,0,0.4,0.1,0.4,0.4c0,2.8,0,5.6,0,8.5c0,0.3,0,0.3-0.4,0.3c-2.2-0.4-4.2-1.3-5.9-2.8
		c-2.6-2.2-4.1-4.9-4.6-8.3C1.6,12.8,2.8,9.2,5.5,6.2c1.9-2,4.2-3.3,6.9-3.9c4.3-0.8,8.2,0.2,11.4,3.2c2.1,1.9,3.5,4.4,4,7.2
		c0.8,4.5-0.5,8.4-3.7,11.7c-1.8,1.8-4.1,3-6.6,3.5C17,28,17,28,17,27.5C17,26.2,17,24.8,17,23.4z"/>
</g>
<g id="Instagram" class="st0">
	<path class="st1" d="M15,28c-1.8,0-3.5,0-5.3,0c-3.2-0.1-5.6-1.6-7-4.5c-0.5-1-0.7-2-0.7-3.1c0-3.6,0-7.2,0-10.9
		c0-3.8,2.8-7,6.6-7.5C9,2,9.3,2,9.6,2c3.6,0,7.2,0,10.8,0C24,2,27,4.4,27.8,7.9C27.9,8.4,28,9,28,9.6c0,3.6,0,7.1,0,10.7
		c0,3.7-2.5,6.8-6.2,7.5c-0.5,0.1-1,0.1-1.5,0.1C18.5,28,16.8,28,15,28z M15,25.3c1.9,0,3.7,0,5.6,0c0.3,0,0.5,0,0.8,0
		c2.5-0.4,4-2.5,4-4.7c0-3.7,0-7.5,0-11.2c0-0.3,0-0.5,0-0.8c-0.3-2.2-2.4-3.9-4.7-3.9c-3.7,0-7.5,0-11.2,0c-0.3,0-0.5,0-0.8,0
		c-2.4,0.4-4,2.5-4,4.6c0,3.8,0,7.5,0,11.3c0,0.3,0,0.5,0,0.8c0.4,2.3,2.4,4,4.7,3.9C11.3,25.3,13.1,25.3,15,25.3z"/>
	<path class="st1" d="M15,8.5c3.6,0,6.5,2.9,6.5,6.5c0,3.6-2.9,6.5-6.5,6.5c-3.6,0-6.5-2.9-6.5-6.5C8.5,11.4,11.4,8.5,15,8.5z
		 M15,11.1c-2.1,0-3.9,1.8-3.8,3.9c0,2.2,1.7,3.8,3.9,3.9c2.1,0,3.9-1.7,3.8-3.8C18.8,12.9,17.2,11.2,15,11.1z"/>
	<path class="st1" d="M21.8,6.5c0.9,0,1.6,0.8,1.6,1.6c0,0.9-0.8,1.7-1.7,1.7c-0.9,0-1.7-0.8-1.6-1.7C20.2,7.3,20.9,6.5,21.8,6.5z"
		/>
</g>
<path id="line" class="st2" d="M14.5,1.7c4.3,0.1,7.8,1.1,10.7,3.6c2,1.7,3.4,3.9,3.7,6.6c0.3,2.5-0.4,4.8-1.9,6.8
	c-1.3,1.8-3,3.3-4.8,4.7c-2.2,1.7-4.5,3.3-7,4.6c-0.3,0.1-0.6,0.2-0.9,0.3c-0.4,0.1-0.7-0.1-0.6-0.5c0.1-0.6,0.2-1.2,0.2-1.8
	c0.1-1.2-0.2-1.5-1.4-1.7C10.2,23.9,8,23.1,6,21.7c-2.4-1.7-4.2-3.9-4.8-6.8c-0.6-3,0.2-5.6,2.1-8c2.1-2.7,5-4.2,8.3-4.8
	C12.7,1.8,13.9,1.7,14.5,1.7z M14.9,12.8C15,12.7,15,12.7,14.9,12.8c1,1.2,1.8,2.4,2.7,3.6c0.3,0.4,0.6,0.5,0.9,0.4
	c0.3-0.1,0.5-0.4,0.5-0.9c0-1.8,0-3.5,0-5.3c0-0.5-0.3-0.9-0.7-0.9c-0.5,0-0.8,0.3-0.8,0.9c0,1,0,1.9,0,2.9c0,0.1,0,0.2,0,0.3
	c-0.2-0.3-0.3-0.5-0.5-0.6c-0.8-1-1.5-2.1-2.3-3.1c-0.2-0.3-0.5-0.4-0.9-0.3c-0.3,0.1-0.5,0.3-0.5,0.7c0,1.9,0,3.8,0,5.6
	c0,0.5,0.5,0.8,1,0.7c0.4-0.1,0.5-0.4,0.5-0.8C14.9,14.9,14.9,13.8,14.9,12.8z M21.6,14c0.7,0,1.3,0,2,0c0.2,0,0.4,0,0.5-0.1
	c0.3-0.2,0.4-0.5,0.3-0.8c-0.1-0.3-0.3-0.5-0.7-0.5c-0.7,0-1.3,0-2,0c0-0.5,0-0.9,0-1.3c0.6,0,1.3,0,1.9,0c0.5,0,0.9-0.3,0.9-0.8
	c0-0.4-0.3-0.7-0.9-0.7c-0.8,0-1.7,0-2.5,0c-0.6,0-0.9,0.2-0.9,0.8c0,1.8,0,3.6,0,5.4c0,0.6,0.3,0.8,0.9,0.8c0.8,0,1.7,0,2.5,0
	c0.6,0,0.9-0.3,0.9-0.8c0-0.5-0.3-0.7-0.9-0.7c-0.6,0-1.3,0-1.9,0C21.6,14.8,21.6,14.4,21.6,14z M7.5,15.3c0-0.2,0-0.3,0-0.5
	c0-1.4,0-2.9,0-4.3c0-0.5-0.3-0.8-0.8-0.8C6.3,9.7,6,10,6,10.5c0,1.8,0,3.6,0,5.4c0,0.5,0.3,0.8,0.8,0.8c0.9,0,1.8,0,2.7,0
	c0.5,0,0.8-0.3,0.8-0.7c0-0.4-0.3-0.7-0.8-0.7C8.8,15.3,8.2,15.3,7.5,15.3z M10.9,13.2c0,0.9,0,1.8,0,2.7c0,0.5,0.3,0.8,0.7,0.9
	c0.5,0,0.7-0.3,0.7-0.9c0-1.8,0-3.5,0-5.3c0-0.5-0.3-0.8-0.7-0.9c-0.5,0-0.8,0.3-0.8,0.9C10.9,11.5,10.9,12.4,10.9,13.2z"/>
<path id="rakuten" class="st3" d="M6.3,28l-3.5-2.9h24.4L6.3,28z M10.2,22.9v-6.5H13l4.9,6.5h5L17,15.1c3.2-2.3,4-6.8,1.7-10
	c-1.3-1.9-3.5-3-5.9-3H6.3v20.9H10.2z M10.2,6h2.6c1.8-0.1,3.3,1.3,3.3,3.1c0.1,1.8-1.3,3.3-3.1,3.3c-0.1,0-0.1,0-0.2,0h-2.6V6z"/>
<g id="yahoo" class="st0">
	<path class="st1" d="M0.5,8.3c0-0.3,0-0.5,0.1-0.8c0-0.1,0.1-0.1,0.2-0.2c0.1,0,0.2,0,0.2,0c3.4,0,6.8,0,10.1,0c0.1,0,0.3,0,0.4,0
		c0,0.3-0.1,0.5-0.1,0.8c0,0.1-0.2,0.2-0.3,0.2c-0.8,0.1-1.6,0.1-2.4,0.2C8.6,8.5,8.3,8.5,8,8.5c1.5,2.3,3.3,4.3,4.9,6.5
		c1.4-1.3,2.9-2.5,4.3-3.8c0.2-0.2,0.3-0.5,0.6-0.8c-0.9-0.1-1.8-0.3-2.6-0.4c-0.3,0-0.5-0.1-0.5-0.5c0-0.2-0.1-0.4-0.1-0.6
		c3.1,0,6.3,0,9.5,0c-0.2,0.3-0.4,0.6-0.6,0.9c-0.1,0.1-0.2,0.1-0.3,0.1c-0.7,0.2-1.4,0.3-2.2,0.5c-0.3,0.1-0.5,0.2-0.7,0.3
		c-2,1.4-3.9,2.9-5.7,4.6c0,0-0.1,0.1-0.1,0.1c-0.5,0.4-0.7,0.9-0.7,1.6c0.1,1.1,0,2.3,0,3.5c1.1,0.1,2.2,0.2,3.4,0.2
		c0,0.4-0.1,0.7-0.1,1c0,0.1-0.2,0.2-0.3,0.2c-1.3,0-2.6,0-3.9,0c-1.9,0-3.9,0-5.8,0c-0.1,0-0.2,0-0.4,0c0.1-0.4,0.2-0.8,0.3-1
		C7.6,21,8.3,20.9,9,20.8c0.2,0,0.5-0.1,0.7-0.3c0.3-0.2,0.5-0.4,0.5-0.8c0-1.1,0-2.1,0-3.2c0-0.2-0.1-0.4-0.2-0.6
		c-1.5-1.8-2.9-3.7-4.4-5.5c-0.4-0.4-0.8-0.8-1.2-1.3C4,8.8,3.5,8.7,3.1,8.6C2.3,8.6,1.6,8.5,0.8,8.4C0.7,8.3,0.6,8.3,0.5,8.3z"/>
	<g class="st4">
		<path class="st2" d="M22.5,18.5c1-3.2,1.9-6.3,2.9-9.5c1.4,0.4,2.7,0.8,4.1,1.3c-0.5,0.9-1.1,1.8-1.6,2.6c-1.2,2-2.3,3.9-3.4,5.9
			c-0.1,0.2-0.3,0.3-0.5,0.2C23.5,18.7,23,18.6,22.5,18.5z"/>
		<path class="st2" d="M23.8,20.8c-0.3,0.6-0.6,1.3-0.8,1.9c-0.8-0.2-1.6-0.5-2.4-0.7c0.3-0.7,0.6-1.3,0.9-2
			C22.2,20.3,23,20.5,23.8,20.8z"/>
	</g>
</g>
</svg>
